<?xml version="1.0" encoding="iso-8859-1"?>
<!-- Uploaded to: SVG Repo, www.svgrepo.com, Generator: SVG Repo Mixer Tools -->
<svg height="800px" width="800px" version="1.1" id="Layer_1" xmlns="http://www.w3.org/2000/svg" xmlns:xlink="http://www.w3.org/1999/xlink" 
	 viewBox="0 0 512 512" xml:space="preserve">
<g>
	<circle style="fill:#FFC552;" cx="128.516" cy="93.459" r="43.036"/>
	<path style="fill:#FFC552;" d="M128.511,36.057c-4.546,0-8.232-3.686-8.232-8.232V8.232c0-4.546,3.686-8.232,8.232-8.232
		c4.546,0,8.232,3.686,8.232,8.232v19.593C136.743,32.371,133.057,36.057,128.511,36.057z"/>
	<path style="fill:#FFC552;" d="M174.923,55.281c-2.106,0-4.214-0.803-5.82-2.411c-3.215-3.215-3.215-8.427,0-11.641l13.854-13.854
		c3.215-3.215,8.427-3.215,11.641,0c3.215,3.215,3.215,8.427,0,11.641l-13.854,13.854C179.137,54.477,177.031,55.281,174.923,55.281
		z"/>
	<path style="fill:#FFC552;" d="M213.74,101.694h-19.592c-4.546,0-8.232-3.686-8.232-8.232s3.686-8.232,8.232-8.232h19.592
		c4.546,0,8.232,3.686,8.232,8.232S218.287,101.694,213.74,101.694z"/>
	<path style="fill:#FFC552;" d="M188.777,161.961c-2.106,0-4.214-0.803-5.82-2.411l-13.854-13.854
		c-3.215-3.215-3.215-8.427,0-11.641c3.215-3.215,8.427-3.215,11.641,0l13.854,13.854c3.215,3.215,3.215,8.427,0,11.641
		C192.991,161.157,190.884,161.961,188.777,161.961z"/>
	<path style="fill:#FFC552;" d="M128.511,186.924c-4.546,0-8.232-3.686-8.232-8.232V159.1c0-4.546,3.686-8.232,8.232-8.232
		c4.546,0,8.232,3.686,8.232,8.232v19.593C136.743,183.239,133.057,186.924,128.511,186.924z"/>
	<path style="fill:#FFC552;" d="M68.244,161.961c-2.107,0-4.214-0.803-5.82-2.411c-3.215-3.215-3.215-8.427,0-11.641l13.854-13.854
		c3.215-3.215,8.426-3.215,11.642,0c3.215,3.215,3.215,8.427,0,11.641L74.065,159.55C72.458,161.157,70.35,161.961,68.244,161.961z"
		/>
	<path style="fill:#FFC552;" d="M62.874,101.694H43.281c-4.546,0-8.232-3.686-8.232-8.232s3.686-8.232,8.232-8.232h19.593
		c4.546,0,8.232,3.686,8.232,8.232S67.42,101.694,62.874,101.694z"/>
	<path style="fill:#FFC552;" d="M82.098,55.281c-2.106,0-4.214-0.803-5.82-2.411L62.424,39.016c-3.215-3.215-3.215-8.427,0-11.641
		c3.215-3.215,8.427-3.215,11.642,0l13.854,13.854c3.215,3.215,3.215,8.427,0,11.641C86.311,54.477,84.205,55.281,82.098,55.281z"/>
	<path style="fill:#FFC552;" d="M43.281,512H476.95V398.961l-28.93-36.03l-114.148,18.582l-96.587-18.582l-76.098,18.582
		l-54.879-18.582l-63.026,36.03L43.281,512z"/>
</g>
<path style="fill:#70B1CC;" d="M476.951,398.961c-27.412-13.165-59.322-13.165-86.734,0l0,0c-27.412,13.165-59.322,13.165-86.734,0
	l0,0c-27.412-13.165-59.322-13.165-86.734,0l0,0c-27.412,13.165-59.322,13.165-86.734,0l0,0c-27.412-13.165-59.322-13.165-86.734,0
	V342.98l42.198-37.123l68.39,19.346l50.075-1.276l56.171-18.069l49.611,6.174l38.781,21.075l67.318-32.971l46.83,11.896
	l14.295,30.95v55.982H476.951z"/>
<path style="fill:#7EC8E6;" d="M476.951,342.98c-27.412-13.165-59.322-13.165-86.734,0l0,0c-27.412,13.165-59.322,13.165-86.734,0
	l0,0c-27.412-13.165-59.322-13.165-86.734,0l0,0c-27.412,13.165-59.322,13.165-86.734,0l0,0c-27.412-13.165-59.322-13.165-86.734,0
	V287l42.198-38.217l91.806,18.293l82.831-21.22l94.245,25.052l87.074-25.052l35.516,41.144L476.951,342.98z"/>
<g>
	<path style="fill:#8CDEFF;" d="M444.368,88.209c-5.579,0-10.83,1.405-15.421,3.876c0.509-3.059,0.778-6.199,0.778-9.403
		c0-31.412-25.464-56.875-56.875-56.875c-24.502,0-45.386,15.495-53.387,37.22c-3.318-1.427-6.973-2.22-10.813-2.22
		c-15.133,0-27.402,12.269-27.402,27.402c0,0.045,0.003,0.089,0.003,0.134c-0.951-0.083-1.91-0.134-2.882-0.134
		c-17.995,0-32.583,14.588-32.583,32.583s14.588,32.583,32.583,32.583h165.999c17.995,0,32.583-14.588,32.583-32.583
		S462.363,88.209,444.368,88.209z"/>
	<path style="fill:#8CDEFF;" d="M390.217,231.02L390.217,231.02c-27.412,13.165-59.321,13.165-86.733,0l0,0
		c-27.413-13.167-59.322-13.167-86.734,0l0,0c-27.413,13.165-59.322,13.165-86.734,0l0,0c-27.413-13.167-59.322-13.167-86.734,0
		v55.981c27.412-13.167,59.321-13.167,86.734,0l0,0c27.412,13.165,59.321,13.165,86.734,0l0,0c27.412-13.167,59.321-13.167,86.734,0
		l0,0c27.412,13.165,59.321,13.165,86.733,0l0,0c27.413-13.167,59.322-13.167,86.734,0V231.02
		C449.538,217.853,417.629,217.853,390.217,231.02z"/>
</g>
</svg>